<?xml version="1.0" encoding="UTF-8"?>
<svg width="496px" height="496px" viewBox="0 0 496 496" version="1.1" xmlns="http://www.w3.org/2000/svg" xmlns:xlink="http://www.w3.org/1999/xlink">
    <title>question</title>
    <g id="Page-1" stroke="none" stroke-width="1" fill="none" fill-rule="evenodd">
        <g id="question" fill="#238BF7" fill-rule="nonzero">
            <path d="M248,0 C111.043,0 0,111.083 0,248 C0,384.997 111.043,496 248,496 C384.957,496 496,384.997 496,248 C496,111.083 384.957,0 248,0 Z M248,448 C137.468,448 48,358.569 48,248 C48,137.505 137.472,48 248,48 C358.491,48 448,137.471 448,248 C448,358.53 358.569,448 248,448 Z M355.244,192.8 C355.244,259.852 282.823,260.884 282.823,285.663 L282.823,292 C282.823,298.627 277.45,304 270.823,304 L225.176,304 C218.549,304 213.176,298.627 213.176,292 L213.176,283.341 C213.176,247.596 240.276,233.307 260.755,221.825 C278.316,211.98 289.079,205.284 289.079,192.246 C289.079,175 267.08,163.553 249.295,163.553 C226.106,163.553 215.401,174.53 200.353,193.522 C196.296,198.642 188.893,199.593 183.687,195.646 L155.863,174.548 C150.756,170.676 149.612,163.482 153.219,158.185 C176.846,123.491 206.94,104 253.794,104 C302.865,104 355.244,142.304 355.244,192.8 L355.244,192.8 Z M290,360 C290,383.159 271.159,402 248,402 C224.841,402 206,383.159 206,360 C206,336.841 224.841,318 248,318 C271.159,318 290,336.841 290,360 Z" id="Shape"></path>
        </g>
    </g>
</svg>